<?xml version="1.0" encoding="utf-8"?>
<!-- Generator: Adobe Illustrator 27.0.0, SVG Export Plug-In . SVG Version: 6.00 Build 0)  -->
<svg version="1.1" id="Layer_1" xmlns="http://www.w3.org/2000/svg" xmlns:xlink="http://www.w3.org/1999/xlink" x="0px" y="0px"
	 viewBox="0 0 1080 301.1" style="enable-background:new 0 0 1080 301.1;" xml:space="preserve">
<style type="text/css">
	.st0{fill:#FFFFFF;}
	.st1{fill:#054560;}
	.st2{fill:#B57D3A;}
	.st3{fill:url(#SVGID_1_);}
	.st4{fill:#E1A140;}
</style>
<g id="bg">
</g>
<polygon class="st0" points="582.3,301.3 582.3,302.5 581,301.8 "/>
<path class="st1" d="M274.7,55.8"/>
<polygon class="st1" points="250.1,170.5 235.8,163.3 235.8,163.3 "/>
<path class="st0" d="M106.1,10.2H11.7v179.2h49.7v-51.2h42.2c13.6,0,26.1-2.1,36.9-6.2c24.5-9.3,40.2-29,40.2-58.4v-0.5
	C180.6,33.5,151.4,10.2,106.1,10.2z M102.5,99.3H61.4V51.9h40.9c17.9,0,28.7,8.2,28.7,23.6V76c0,12.7-8.8,21.5-23.5,23
	C105.9,99.2,104.2,99.3,102.5,99.3z"/>
<path class="st0" d="M212.2,100.3v-0.5c0-51.5,41.5-93.2,96.8-93.2s96.3,41.2,96.3,92.7v0.5c0,51.5-41.5,93.2-96.8,93.2
	C253.1,193,212.2,151.8,212.2,100.3z M354.5,100.3v-0.5c0-25.9-18.7-48.4-46.1-48.4c-27.1,0-45.3,22-45.3,47.9v0.5
	c0,25.9,18.7,48.4,45.8,48.4C336.4,148.2,354.5,126.2,354.5,100.3z"/>
<path class="st0" d="M704.6,10.2h164.6v42.2H753.8v27.1h115.5v39.2H753.8v28.4h115.5v42.2H704.6V10.2z"/>
<polygon class="st0" points="483.1,9.9 483.1,126.6 435.3,174.5 435.3,9.9 "/>
<polygon class="st2" points="588.7,103.6 554.9,137.4 502.9,189.4 435.3,189.4 554.9,69.8 "/>
<linearGradient id="SVGID_1_" gradientUnits="userSpaceOnUse" x1="498.2796" y1="146.4423" x2="606.2721" y2="245.044" gradientTransform="matrix(1 0 0 -1 0 304)">
	<stop  offset="0.1608" style="stop-color:#000000;stop-opacity:0"/>
	<stop  offset="1" style="stop-color:#000000"/>
</linearGradient>
<polygon class="st3" points="588.7,103.6 554.9,137.4 502.9,189.4 435.3,189.4 554.9,69.8 "/>
<polygon class="st4" points="674.5,189.4 606.8,189.4 554.9,137.4 521.1,103.6 554.9,69.8 "/>
<g>
	<path class="st0" d="M993.6,10.2h-94.4v179.2h49.7v-51.2H991c13.6,0,26.1-2.1,36.9-6.2c24.5-9.3,40.2-29,40.2-58.4v-0.5
		C1068.1,33.5,1038.9,10.2,993.6,10.2z M990,99.3h-41.1V51.9h40.9c17.9,0,28.7,8.2,28.7,23.6V76c0,12.7-8.8,21.5-23.5,23
		C993.4,99.2,991.7,99.3,990,99.3z"/>
	<path class="st0" d="M1067.8,189.4h-67.6L949,138.2l0,0l-0.7-0.8l-33.8-33.8l33.8-33.8l0.7,0.7v28.7h23.5c1.7,0,3.4-0.1,4.9-0.2
		L1067.8,189.4z"/>
</g>
<polygon class="st0" points="674.5,9.9 674.5,174.4 626.7,126.6 626.7,9.9 "/>
<rect x="540" y="159.5" class="st4" width="13.9" height="13.9"/>
<rect x="556" y="159.5" class="st4" width="13.9" height="13.9"/>
<rect x="540" y="175.8" class="st4" width="13.9" height="13.9"/>
<rect x="556" y="175.8" class="st4" width="13.9" height="13.9"/>
<g>
	<path class="st0" d="M103.5,282.2c-1.4,0.8-2.9,1.5-4.5,1.9s-3.1,0.7-4.5,0.7c-2.6,0-5.1-0.6-7.2-1.9c-2.2-1.3-3.9-3-5.2-5.2
		c-1.3-2.2-1.9-4.6-1.9-7.2s0.6-4.9,1.9-7.1s3-3.9,5.2-5.1s4.6-1.9,7.2-1.9c2.1,0,4.2,0.4,6.3,1.2c2.1,0.8,3.9,2,5.5,3.5l4.5-5.9
		c-2.1-1.9-4.6-3.3-7.5-4.4c-2.9-1.1-5.8-1.6-8.8-1.6c-4.2,0-7.9,0.9-11.4,2.8s-6.1,4.4-8.1,7.6c-2,3.2-3,6.8-3,10.8s1,7.6,2.9,10.8
		c1.9,3.3,4.6,5.8,7.9,7.7c3.3,1.9,7.1,2.8,11.1,2.8c2.9,0,5.8-0.5,8.7-1.5c3-1,5.5-2.3,7.7-3.9v-15.8h-6.9v11.7H103.5z"/>
	<path class="st0" d="M158.7,249.9h-8.2l-18.2,41.5h8.2l3.7-8.8l0,0l2.9-6.8l0,0l7.4-17.4l13.8,33h8.5L158.7,249.9z"/>
	<path class="st0" d="M190.6,249.9v7.1h12.9v34.5h8V257h12.9v-7.1H190.6z"/>
	<path class="st0" d="M255.9,284.5V274H276v-6.9h-20.2v-10.3h22.5v-6.9h-30.4v41.5H279v-6.9L255.9,284.5L255.9,284.5z"/>
	<path class="st0" d="M355.3,249.9l-9.7,33l-9.8-33H328l-9.7,32.9l-9.8-32.9H300l14,41.5h8.1l9.7-31.5l9.5,31.5h8.2l14.1-41.5H355.3
		z"/>
	<path class="st0" d="M404.8,249.9h-8.2l-18.2,41.5h8.2l3.7-8.8l2.9-6.8l0,0l7.4-17.4l13.8,33h8.5L404.8,249.9z"/>
	<path class="st0" d="M467.9,249.9l-11.2,19.5l-11.3-19.5h-8.1l15.5,28.2v13.3h7.9v-13.6l15.1-27.9H467.9z"/>
	<path class="st0" d="M526.5,249.9v7.1h12.9v34.5h8V257h12.9v-7.1H526.5z"/>
	<path class="st0" d="M619.5,259.8c-1.9-3.2-4.6-5.8-8-7.6c-3.4-1.9-7.1-2.8-11.2-2.8c-4.1,0-7.9,0.9-11.2,2.8c-3.4,1.9-6,4.4-8,7.6
		c-1.9,3.2-2.9,6.8-2.9,10.8s1,7.6,2.9,10.8c1.9,3.3,4.6,5.8,8,7.7c3.4,1.9,7.1,2.8,11.2,2.8c4.1,0,7.8-0.9,11.2-2.8s6-4.5,8-7.7
		c1.9-3.3,2.9-6.9,2.9-10.8C622.4,266.6,621.4,263,619.5,259.8z M612.4,277.7c-1.2,2.2-2.9,3.9-5.1,5.2c-2.1,1.3-4.4,1.9-6.9,1.9
		s-4.9-0.6-7-1.9s-3.9-3-5.2-5.2s-1.9-4.6-1.9-7.2s0.6-5,1.9-7.2c1.3-2.1,3-3.8,5.2-5.1c2.2-1.2,4.5-1.9,7.1-1.9
		c2.5,0,4.8,0.6,6.9,1.9c2.1,1.2,3.8,2.9,5.1,5.1c1.2,2.2,1.9,4.5,1.9,7.2C614.3,273.2,613.7,275.6,612.4,277.7z"/>
	<path class="st0" d="M687.5,284.2v-34.3h-7.9v41.5h25.9v-7.2H687.5z"/>
	<path class="st0" d="M756.9,249.9v24.4c0,3.3-0.9,5.9-2.7,7.7c-1.8,1.9-4.3,2.8-7.4,2.8c-3.1,0-5.6-0.9-7.5-2.8
		c-1.9-1.8-2.8-4.4-2.8-7.7v-24.4h-7.9v24.4c0,3.6,0.7,6.7,2.2,9.4c1.4,2.7,3.6,4.7,6.3,6.1s6,2.1,9.7,2.1s6.9-0.7,9.6-2.1
		c2.7-1.4,4.8-3.5,6.3-6.1c1.5-2.7,2.2-5.8,2.2-9.4v-24.4H756.9z"/>
	<path class="st0" d="M817,249.9l-5.8,8.3l4.8,6.6l10.5-15H817V249.9z M824.8,287.3l-17.2-24l-0.1,0.2l-9.5-13.6h-9.3l12.8,18.5
		l0.3,0.4l5.7,7.9l0.1-0.1l10.6,14.8h9.5L824.8,287.3z M799.1,275.2l-11.4,16.2h9.3l6.8-9.6L799.1,275.2z"/>
	<path class="st0" d="M879,249.9v24.4c0,3.3-0.9,5.9-2.7,7.7c-1.8,1.9-4.3,2.8-7.4,2.8c-3.1,0-5.6-0.9-7.5-2.8
		c-1.9-1.8-2.8-4.4-2.8-7.7v-24.4h-7.9v24.4c0,3.6,0.7,6.7,2.2,9.4c1.5,2.7,3.6,4.7,6.3,6.1s6,2.1,9.7,2.1s6.9-0.7,9.6-2.1
		c2.7-1.4,4.8-3.5,6.3-6.1c1.5-2.7,2.2-5.8,2.2-9.4v-24.4H879z"/>
	<path class="st0" d="M940.1,277.6c2.7-1.1,4.7-2.9,6.1-5.2c1.4-2.3,2.1-5.1,2.1-8.3c0-4.5-1.5-8.1-4.4-10.6s-7.1-3.7-12.5-3.7
		h-17.3v41.5h7.9v-12.2h9.4c0.7,0,1.2,0,1.5,0l7.2,12.3h9.1L940.1,277.6z M931.5,272.2h-9.4v-15.3h9.4c3,0,5.3,0.6,6.9,1.9
		c1.6,1.3,2.4,3.2,2.4,5.7c0,2.6-0.8,4.5-2.4,5.8C936.8,271.5,934.5,272.2,931.5,272.2z"/>
	<path class="st0" d="M999.7,249.9l-11.1,19.5l-11.3-19.5h-8.1l15.5,28.2v13.3h7.9v-13.6l15.1-27.9H999.7z"/>
</g>
<g>
	<rect x="11.7" y="217.7" class="st0" width="1056.1" height="3.3"/>
</g>
</svg>
